{
    "asset" : {
        "generator" : "Khronos glTF Blender I/O v1.8.19",
        "version" : "2.0"
    },
    "scene" : 0,
    "scenes" : [
        {
            "name" : "Scene",
            "nodes" : [
                0
            ]
        }
    ],
    "nodes" : [
        {
            "mesh" : 0,
            "name" : "Mesh_0",
            "rotation" : [
                -0.5,
                0.5,
                0.5,
                0.4999999701976776
            ]
        }
    ],
    "materials" : [
        {
            "doubleSided" : true,
            "name" : "Material.001",
            "pbrMetallicRoughness" : {
                "baseColorFactor" : [
                    0.08399036526679993,
                    0.08399036526679993,
                    0.08399036526679993,
                    1
                ],
                "metallicFactor" : 0,
                "roughnessFactor" : 0.4000000059604645
            }
        }
    ],
    "meshes" : [
        {
            "name" : "Mesh_0",
            "primitives" : [
                {
                    "attributes" : {
                        "POSITION" : 0,
                        "NORMAL" : 1
                    },
                    "indices" : 2,
                    "material" : 0
                }
            ]
        }
    ],
    "accessors" : [
        {
            "bufferView" : 0,
            "componentType" : 5126,
            "count" : 81396,
            "max" : [
                0.6372625231742859,
                0.6266367435455322,
                1.9043424129486084
            ],
            "min" : [
                -0.6372625231742859,
                -0.17569196224212646,
                -0.009357902221381664
            ],
            "type" : "VEC3"
        },
        {
            "bufferView" : 1,
            "componentType" : 5126,
            "count" : 81396,
            "type" : "VEC3"
        },
        {
            "bufferView" : 2,
            "componentType" : 5125,
            "count" : 81396,
            "type" : "SCALAR"
        }
    ],
    "bufferViews" : [
        {
            "buffer" : 0,
            "byteLength" : 976752,
            "byteOffset" : 0
        },
        {
            "buffer" : 0,
            "byteLength" : 976752,
            "byteOffset" : 976752
        },
        {
            "buffer" : 0,
            "byteLength" : 325584,
            "byteOffset" : 1953504
        }
    ],
    "buffers" : [
        {
            "byteLength" : 2279088,
            "uri" : "data:application/octet-stream;base64,"
        }
    ]
}
