{
    "asset" : {
        "generator" : "Khronos glTF Blender I/O v1.8.19",
        "version" : "2.0"
    },
    "scene" : 0,
    "scenes" : [
        {
            "name" : "Scene",
            "nodes" : [
                0
            ]
        }
    ],
    "nodes" : [
        {
            "mesh" : 0,
            "name" : "Cylinder:004_Cylinder:086.001",
            "rotation" : [
                0.7071068286895752,
                0,
                0,
                0.7071067094802856
            ]
        }
    ],
    "materials" : [
        {
            "doubleSided" : true,
            "name" : "white",
            "pbrMetallicRoughness" : {
                "baseColorFactor" : [
                    0,
                    0,
                    0,
                    1
                ],
                "metallicFactor" : 0,
                "roughnessFactor" : 1
            }
        }
    ],
    "meshes" : [
        {
            "name" : "Cylinder:004_Cylinder:086.001",
            "primitives" : [
                {
                    "attributes" : {
                        "POSITION" : 0,
                        "NORMAL" : 1,
                        "TEXCOORD_0" : 2
                    },
                    "indices" : 3,
                    "material" : 0
                }
            ]
        }
    ],
    "accessors" : [
        {
            "bufferView" : 0,
            "componentType" : 5126,
            "count" : 41286,
            "max" : [
                -0.018859000876545906,
                0.7129480242729187,
                0.003671000013127923
            ],
            "min" : [
                -0.7810750007629395,
                -0.7585729956626892,
                -1.845844030380249
            ],
            "type" : "VEC3"
        },
        {
            "bufferView" : 1,
            "componentType" : 5126,
            "count" : 41286,
            "type" : "VEC3"
        },
        {
            "bufferView" : 2,
            "componentType" : 5126,
            "count" : 41286,
            "type" : "VEC2"
        },
        {
            "bufferView" : 3,
            "componentType" : 5123,
            "count" : 177159,
            "type" : "SCALAR"
        }
    ],
    "bufferViews" : [
        {
            "buffer" : 0,
            "byteLength" : 495432,
            "byteOffset" : 0
        },
        {
            "buffer" : 0,
            "byteLength" : 495432,
            "byteOffset" : 495432
        },
        {
            "buffer" : 0,
            "byteLength" : 330288,
            "byteOffset" : 990864
        },
        {
            "buffer" : 0,
            "byteLength" : 354318,
            "byteOffset" : 1321152
        }
    ],
    "buffers" : [
        {
            "byteLength" : 1675472,
            "uri" : "data:application/octet-stream;base64,"
        }
    ]
}
