{
  "accessors": [
    {
      "bufferView": 2,
      "componentType": 5126,
      "count": 2391,
      "max": [
        -2764.50439453125,
        1.6735624074935913,
        585.2249145507813
      ],
      "min": [
        -2767.8515625,
        -1.6735624074935913,
        -94.41812133789063
      ],
      "type": "VEC3"
    },
    {
      "bufferView": 2,
      "byteOffset": 28692,
      "componentType": 5126,
      "count": 2391,
      "max": [
        1.0,
        1.0,
        1.0
      ],
      "min": [
        -1.0,
        -1.0,
        -1.0
      ],
      "type": "VEC3"
    },
    {
      "bufferView": 1,
      "componentType": 5126,
      "count": 2391,
      "max": [
        0.019030651077628136,
        0.99853515625
      ],
      "min": [
        4.924842141917907e-05,
        0.0
      ],
      "type": "VEC2"
    },
    {
      "bufferView": 0,
      "componentType": 5125,
      "count": 7782,
      "type": "SCALAR"
    },
    {
      "bufferView": 2,
      "byteOffset": 57384,
      "componentType": 5126,
      "count": 27101,
      "max": [
        -1447.944091796875,
        543.8554077148438,
        661.525146484375
      ],
      "min": [
        -2917.337158203125,
        -359.7206115722656,
        -94.41812133789063
      ],
      "type": "VEC3"
    },
    {
      "bufferView": 2,
      "byteOffset": 382596,
      "componentType": 5126,
      "count": 27101,
      "max": [
        1.0,
        1.0,
        1.0
      ],
      "min": [
        -1.0,
        -1.0,
        -1.0
      ],
      "type": "VEC3"
    },
    {
      "bufferView": 1,
      "byteOffset": 19128,
      "componentType": 5126,
      "count": 27101,
      "max": [
        1.0,
        1.0
      ],
      "min": [
        0.0,
        0.0
      ],
      "type": "VEC2"
    },
    {
      "bufferView": 0,
      "byteOffset": 31128,
      "componentType": 5125,
      "count": 151401,
      "type": "SCALAR"
    },
    {
      "bufferView": 2,
      "byteOffset": 707808,
      "componentType": 5126,
      "count": 120,
      "max": [
        -1640.4649658203125,
        162.48260498046875,
        422.9081115722656
      ],
      "min": [
        -1683.334716796875,
        102.1574935913086,
        376.0500793457031
      ],
      "type": "VEC3"
    },
    {
      "bufferView": 2,
      "byteOffset": 709248,
      "componentType": 5126,
      "count": 120,
      "max": [
        0.9298555254936218,
        0.9988664388656616,
        0.7341376543045044
      ],
      "min": [
        -0.921625018119812,
        -0.7625302076339722,
        -0.9992527365684509
      ],
      "type": "VEC3"
    },
    {
      "bufferView": 1,
      "byteOffset": 235936,
      "componentType": 5126,
      "count": 120,
      "max": [
        1.0627988576889038,
        1.0002996921539307
      ],
      "min": [
        -0.028531363233923912,
        -0.14233464002609253
      ],
      "type": "VEC2"
    },
    {
      "bufferView": 0,
      "byteOffset": 636732,
      "componentType": 5125,
      "count": 228,
      "type": "SCALAR"
    },
    {
      "bufferView": 2,
      "byteOffset": 710688,
      "componentType": 5126,
      "count": 1008,
      "max": [
        -1649.2896728515625,
        207.30868530273438,
        363.58673095703125
      ],
      "min": [
        -1752.5560302734375,
        103.69967651367188,
        275.38604736328125
      ],
      "type": "VEC3"
    },
    {
      "bufferView": 2,
      "byteOffset": 722784,
      "componentType": 5126,
      "count": 1008,
      "max": [
        0.0,
        1.0,
        0.0
      ],
      "min": [
        -0.8679904937744141,
        -1.0,
        -0.49837979674339294
      ],
      "type": "VEC3"
    },
    {
      "bufferView": 0,
      "byteOffset": 637644,
      "componentType": 5125,
      "count": 2643,
      "type": "SCALAR"
    },
    {
      "bufferView": 2,
      "byteOffset": 734880,
      "componentType": 5126,
      "count": 65532,
      "max": [
        -1554.246337890625,
        263.2384338378906,
        543.4927368164063
      ],
      "min": [
        -2845.42626953125,
        -285.7950134277344,
        -0.00019577697094064206
      ],
      "type": "VEC3"
    },
    {
      "bufferView": 2,
      "byteOffset": 1521264,
      "componentType": 5126,
      "count": 65532,
      "max": [
        1.0,
        1.0,
        1.0
      ],
      "min": [
        -1.0,
        -1.0,
        -1.0
      ],
      "type": "VEC3"
    },
    {
      "bufferView": 1,
      "byteOffset": 236896,
      "componentType": 5126,
      "count": 65532,
      "max": [
        1.017536997795105,
        1.0047270059585571
      ],
      "min": [
        -0.07171914726495743,
        -0.06945676356554031
      ],
      "type": "VEC2"
    },
    {
      "bufferView": 0,
      "byteOffset": 648216,
      "componentType": 5125,
      "count": 241887,
      "type": "SCALAR"
    },
    {
      "bufferView": 2,
      "byteOffset": 2307648,
      "componentType": 5126,
      "count": 36834,
      "max": [
        -1547.543212890625,
        262.60760498046875,
        545.73193359375
      ],
      "min": [
        -2841.380126953125,
        -91.99461364746094,
        -0.00019577697094064206
      ],
      "type": "VEC3"
    },
    {
      "bufferView": 2,
      "byteOffset": 2749656,
      "componentType": 5126,
      "count": 36834,
      "max": [
        1.0,
        1.0,
        1.0
      ],
      "min": [
        -1.0,
        -1.0,
        -1.0
      ],
      "type": "VEC3"
    },
    {
      "bufferView": 1,
      "byteOffset": 761152,
      "componentType": 5126,
      "count": 36834,
      "max": [
        1.0611567497253418,
        1.0341163873672485
      ],
      "min": [
        -0.16481396555900574,
        -0.1615336835384369
      ],
      "type": "VEC2"
    },
    {
      "bufferView": 0,
      "byteOffset": 1615764,
      "componentType": 5125,
      "count": 94794,
      "type": "SCALAR"
    },
    {
      "bufferView": 2,
      "byteOffset": 3191664,
      "componentType": 5126,
      "count": 18430,
      "max": [
        -1581.3626708984375,
        244.81906127929688,
        546.311767578125
      ],
      "min": [
        -2329.163330078125,
        99.1942138671875,
        368.3854675292969
      ],
      "type": "VEC3"
    },
    {
      "bufferView": 2,
      "byteOffset": 3412824,
      "componentType": 5126,
      "count": 18430,
      "max": [
        0.9999926090240479,
        1.0,
        0.9999197125434875
      ],
      "min": [
        -0.9999575614929199,
        -1.0,
        -0.9998478293418884
      ],
      "type": "VEC3"
    },
    {
      "bufferView": 1,
      "byteOffset": 1055824,
      "componentType": 5126,
      "count": 18430,
      "max": [
        0.9988586902618408,
        0.9990737438201904
      ],
      "min": [
        -0.00966562144458294,
        -0.003924359567463398
      ],
      "type": "VEC2"
    },
    {
      "bufferView": 0,
      "byteOffset": 1994940,
      "componentType": 5125,
      "count": 59421,
      "type": "SCALAR"
    }
  ],
  "asset": {
    "extras": {
      "author": "Shadow (https://sketchfab.com/jaydenelizondo7)",
      "license": "CC-BY-4.0 (http://creativecommons.org/licenses/by/4.0/)",
      "source": "https://sketchfab.com/3d-models/universal-robotics-ur-10-0c83b52351634683bb167c09304ed0a6",
      "title": "Universal-robotics-ur-10"
    },
    "generator": "Sketchfab-13.28.0",
    "version": "2.0"
  },
  "bufferViews": [
    {
      "buffer": 0,
      "byteLength": 2232624,
      "name": "floatBufferViews",
      "target": 34963
    },
    {
      "buffer": 0,
      "byteLength": 1203264,
      "byteOffset": 2232624,
      "byteStride": 8,
      "name": "floatBufferViews",
      "target": 34962
    },
    {
      "buffer": 0,
      "byteLength": 3633984,
      "byteOffset": 3435888,
      "byteStride": 12,
      "name": "floatBufferViews",
      "target": 34962
    }
  ],
  "buffers": [
    {
      "byteLength": 7069872,
      "uri": "scene.bin"
    }
  ],
  "materials": [
    {
      "alphaMode": "BLEND",
      "doubleSided": true,
      "name": "Custom",
      "pbrMetallicRoughness": {
        "baseColorFactor": [
          0.972549,
          0.509804,
          0.47451,
          0.464516
        ],
        "metallicFactor": 0.0
      }
    },
    {
      "alphaMode": "BLEND",
      "doubleSided": true,
      "name": "Custom_1",
      "pbrMetallicRoughness": {
        "baseColorFactor": [
          0.498039,
          0.505882,
          0.960784,
          0.490323
        ],
        "metallicFactor": 0.0
      }
    },
    {
      "doubleSided": true,
      "name": "Metal",
      "pbrMetallicRoughness": {
        "baseColorFactor": [
          0.0,
          0.0,
          0.0,
          1.0
        ],
        "metallicFactor": 0.0,
        "roughnessFactor": 0.9529872233313358
      }
    },
    {
      "doubleSided": true,
      "name": "Metal_1",
      "pbrMetallicRoughness": {
        "baseColorFactor": [
          0.0,
          0.0,
          0.0,
          1.0
        ],
        "metallicFactor": 0.0,
        "roughnessFactor": 0.7194902060986492
      }
    },
    {
      "doubleSided": true,
      "name": "Plastic",
      "pbrMetallicRoughness": {
        "baseColorFactor": [
          0.443137,
          0.623529,
          0.941176,
          1.0
        ],
        "metallicFactor": 0.0,
        "roughnessFactor": 0.6003911985119533
      }
    }
  ],
  "meshes": [
    {
      "name": "Object_0",
      "primitives": [
        {
          "attributes": {
            "NORMAL": 1,
            "POSITION": 0,
            "TEXCOORD_0": 2
          },
          "indices": 3,
          "material": 0,
          "mode": 4
        }
      ]
    },
    {
      "name": "Object_1",
      "primitives": [
        {
          "attributes": {
            "NORMAL": 5,
            "POSITION": 4,
            "TEXCOORD_0": 6
          },
          "indices": 7,
          "material": 1,
          "mode": 4
        }
      ]
    },
    {
      "name": "Object_2",
      "primitives": [
        {
          "attributes": {
            "NORMAL": 9,
            "POSITION": 8,
            "TEXCOORD_0": 10
          },
          "indices": 11,
          "material": 2,
          "mode": 4
        }
      ]
    },
    {
      "name": "Object_3",
      "primitives": [
        {
          "attributes": {
            "NORMAL": 13,
            "POSITION": 12
          },
          "indices": 14,
          "material": 3,
          "mode": 4
        }
      ]
    },
    {
      "name": "Object_4",
      "primitives": [
        {
          "attributes": {
            "NORMAL": 16,
            "POSITION": 15,
            "TEXCOORD_0": 17
          },
          "indices": 18,
          "material": 3,
          "mode": 4
        }
      ]
    },
    {
      "name": "Object_5",
      "primitives": [
        {
          "attributes": {
            "NORMAL": 20,
            "POSITION": 19,
            "TEXCOORD_0": 21
          },
          "indices": 22,
          "material": 3,
          "mode": 4
        }
      ]
    },
    {
      "name": "Object_6",
      "primitives": [
        {
          "attributes": {
            "NORMAL": 24,
            "POSITION": 23,
            "TEXCOORD_0": 25
          },
          "indices": 26,
          "material": 4,
          "mode": 4
        }
      ]
    }
  ],
  "nodes": [
    {
      "children": [
        1
      ],
      "matrix": [
        1.0,
        0.0,
        0.0,
        0.0,
        0.0,
        2.220446049250313e-16,
        -1.0,
        0.0,
        0.0,
        1.0,
        2.220446049250313e-16,
        0.0,
        0.0,
        0.0,
        0.0,
        1.0
      ],
      "name": "Sketchfab_model"
    },
    {
      "children": [
        2,
        3,
        4,
        5,
        6,
        7,
        8
      ],
      "name": "UR1Low.obj.cleaner.materialmerger.gles"
    },
    {
      "mesh": 0,
      "name": "Object_2"
    },
    {
      "mesh": 1,
      "name": "Object_3"
    },
    {
      "mesh": 2,
      "name": "Object_4"
    },
    {
      "mesh": 3,
      "name": "Object_5"
    },
    {
      "mesh": 4,
      "name": "Object_6"
    },
    {
      "mesh": 5,
      "name": "Object_7"
    },
    {
      "mesh": 6,
      "name": "Object_8"
    }
  ],
  "scene": 0,
  "scenes": [
    {
      "name": "Sketchfab_Scene",
      "nodes": [
        0
      ]
    }
  ]
}
