{
  "accessors": [
    {
      "bufferView": 3,
      "componentType": 5126,
      "count": 30658,
      "max": [
        0.5576719045639038,
        1.9379851818084717,
        1.2440043687820435
      ],
      "min": [
        -0.5576719045639038,
        -0.0015131235122680664,
        -1.5645532608032227
      ],
      "type": "VEC3"
    },
    {
      "bufferView": 3,
      "byteOffset": 367896,
      "componentType": 5126,
      "count": 30658,
      "max": [
        1.0,
        1.0,
        1.0
      ],
      "min": [
        -1.0,
        -1.0,
        -1.0
      ],
      "type": "VEC3"
    },
    {
      "bufferView": 4,
      "componentType": 5126,
      "count": 30658,
      "max": [
        1.0,
        1.0,
        1.0,
        1.0
      ],
      "min": [
        -1.0,
        -1.0,
        -1.0,
        -1.0
      ],
      "type": "VEC4"
    },
    {
      "bufferView": 2,
      "componentType": 5126,
      "count": 30658,
      "max": [
        0.9976029992103577,
        0.9977539777755737
      ],
      "min": [
        0.002224951284006238,
        0.002225942676886916
      ],
      "type": "VEC2"
    },
    {
      "bufferView": 1,
      "componentType": 5125,
      "count": 140490,
      "type": "SCALAR"
    },
    {
      "bufferView": 5,
      "componentType": 5126,
      "count": 38,
      "max": [
        100.0,
        1.0,
        9.289654911981415e-08,
        0.0,
        7.877937946432212e-08,
        100.0,
        1.0,
        0.0,
        1.0,
        1.0,
        100.0,
        0.0,
        0.9566918611526489,
        1.8515214920043945,
        1.5063508749008179,
        1.0
      ],
      "min": [
        -1.0,
        -1.0,
        -9.289654911981415e-08,
        0.0,
        -7.877937946432212e-08,
        -0.8692879676818848,
        -0.6077309846878052,
        0.0,
        -1.0,
        -0.4943060278892517,
        -0.8692879676818848,
        0.0,
        -0.9566918611526489,
        -0.9135569930076599,
        -1.6617684364318848,
        1.0
      ],
      "type": "MAT4"
    },
    {
      "bufferView": 0,
      "componentType": 5123,
      "count": 30658,
      "type": "VEC4"
    },
    {
      "bufferView": 4,
      "byteOffset": 490528,
      "componentType": 5126,
      "count": 30658,
      "max": [
        1.0,
        0.0,
        0.0,
        0.0
      ],
      "min": [
        1.0,
        0.0,
        0.0,
        0.0
      ],
      "type": "VEC4"
    }
  ],
  "asset": {
    "extras": {
      "author": "Greg McKechnie (https://sketchfab.com/mckechniegreg6)",
      "license": "CC-BY-4.0 (http://creativecommons.org/licenses/by/4.0/)",
      "source": "https://sketchfab.com/3d-models/old-spot-mini-rigged-5dcbee77730640269cef5bd2587e328a",
      "title": "**OLD** Spot Mini (Rigged)"
    },
    "generator": "Sketchfab-12.65.0",
    "version": "2.0"
  },
  "bufferViews": [
    {
      "buffer": 0,
      "byteLength": 245264,
      "byteStride": 8,
      "name": "shortBufferViews",
      "target": 34962
    },
    {
      "buffer": 0,
      "byteLength": 561960,
      "byteOffset": 245264,
      "name": "floatBufferViews",
      "target": 34963
    },
    {
      "buffer": 0,
      "byteLength": 245264,
      "byteOffset": 807224,
      "byteStride": 8,
      "name": "floatBufferViews",
      "target": 34962
    },
    {
      "buffer": 0,
      "byteLength": 735792,
      "byteOffset": 1052488,
      "byteStride": 12,
      "name": "floatBufferViews",
      "target": 34962
    },
    {
      "buffer": 0,
      "byteLength": 981056,
      "byteOffset": 1788280,
      "byteStride": 16,
      "name": "floatBufferViews",
      "target": 34962
    },
    {
      "buffer": 0,
      "byteLength": 2432,
      "byteOffset": 2769336,
      "name": "floatBufferViews"
    }
  ],
  "buffers": [
    {
      "byteLength": 2771768,
      "uri": "scene.bin"
    }
  ],
  "images": [
    {
      "uri": "textures/spot_baseColor.png"
    },
    {
      "uri": "textures/spot_metallicRoughness.png"
    },
    {
      "uri": "textures/spot_emissive.jpeg"
    },
    {
      "uri": "textures/spot_normal.png"
    }
  ],
  "materials": [
    {
      "alphaCutoff": 0.1,
      "alphaMode": "MASK",
      "doubleSided": true,
      "emissiveFactor": [
        1.0,
        1.0,
        1.0
      ],
      "emissiveTexture": {
        "index": 2
      },
      "name": "spot",
      "normalTexture": {
        "index": 3
      },
      "occlusionTexture": {
        "index": 1
      },
      "pbrMetallicRoughness": {
        "baseColorTexture": {
          "index": 0
        },
        "metallicRoughnessTexture": {
          "index": 1
        }
      }
    }
  ],
  "meshes": [
    {
      "name": "spot_rigged_spot_0",
      "primitives": [
        {
          "attributes": {
            "JOINTS_0": 6,
            "NORMAL": 1,
            "POSITION": 0,
            "TANGENT": 2,
            "TEXCOORD_0": 3,
            "TEXCOORD_1": 3,
            "TEXCOORD_2": 3,
            "TEXCOORD_3": 3,
            "WEIGHTS_0": 7
          },
          "indices": 4,
          "material": 0,
          "mode": 4
        }
      ]
    }
  ],
  "nodes": [
    {
      "children": [
        1
      ],
      "matrix": [
        0.008845456875860691,
        0.0,
        0.0,
        0.0,
        0.0,
        1.964085977381889e-18,
        -0.008845456875860691,
        0.0,
        0.0,
        0.008845456875860691,
        1.964085977381889e-18,
        0.0,
        0.0,
        0.0,
        0.0,
        1.0
      ],
      "name": "Sketchfab_model"
    },
    {
      "children": [
        2
      ],
      "matrix": [
        1.0,
        0.0,
        0.0,
        0.0,
        0.0,
        0.0,
        1.0,
        0.0,
        0.0,
        -1.0,
        0.0,
        0.0,
        0.0,
        0.0,
        0.0,
        1.0
      ],
      "name": "97dc2122cc12455e830c37696d8366cb.fbx"
    },
    {
      "children": [
        3
      ],
      "name": "RootNode"
    },
    {
      "children": [
        4
      ],
      "matrix": [
        100.0,
        0.0,
        0.0,
        0.0,
        0.0,
        -1.629206793918314e-05,
        -99.99999999999868,
        0.0,
        0.0,
        99.99999999999868,
        -1.629206793918314e-05,
        0.0,
        0.0,
        0.0,
        0.0,
        1.0
      ],
      "name": "spot_armature"
    },
    {
      "children": [
        5,
        7,
        6
      ],
      "name": "Object_4"
    },
    {
      "children": [
        8,
        10,
        39,
        41,
        43
      ],
      "name": "_rootJoint"
    },
    {
      "matrix": [
        100.00000000000057,
        -2.8421709430404014e-14,
        0.0,
        0.0,
        1.740327774012011e-30,
        6.123233995736766e-15,
        -100.0,
        0.0,
        2.8421709430404014e-14,
        100.00000000000057,
        6.123233995736801e-15,
        0.0,
        -2.531614356371392e-06,
        166.17684031991328,
        82.33079791069031,
        1.0
      ],
      "name": "Object_6"
    },
    {
      "mesh": 0,
      "name": "Object_7",
      "skin": 0
    },
    {
      "children": [
        9
      ],
      "name": "spot_legTarget_FL_01",
      "rotation": [
        0.7071068286895752,
        -3.0908619663705394e-08,
        0.7071067690849304,
        3.0908619663705394e-08
      ],
      "translation": [
        0.6076902151107788,
        -0.9572723507881165,
        0.00010704994201660156
      ]
    },
    {
      "name": "spot_legTarget_FL_end_025",
      "rotation": [
        -6.617444900424222e-24,
        -6.028867890429772e-24,
        1.3234889800848443e-23,
        1.0
      ],
      "translation": [
        -1.3552527156068805e-20,
        0.2999998927116394,
        1.1102230246251565e-16
      ]
    },
    {
      "children": [
        11,
        18,
        25,
        32
      ],
      "name": "spot_body_02",
      "rotation": [
        -6.55607168553729e-09,
        0.1499854326248169,
        0.9886882305145264,
        -4.321693580777719e-08
      ],
      "translation": [
        -3.5390257835388184e-07,
        0.18373054265975952,
        1.2095332145690918
      ]
    },
    {
      "children": [
        12
      ],
      "name": "spot_shoulder_FL_03",
      "rotation": [
        0.039965711534023285,
        0.03996572270989418,
        0.7059765458106995,
        0.7059763669967651
      ],
      "translation": [
        -0.017000354826450348,
        1.0070385932922363,
        2.2351741790771484e-07
      ]
    },
    {
      "children": [
        13,
        15
      ],
      "name": "spot_upperLeg_FL_04",
      "rotation": [
        -0.24812258780002594,
        -0.2481224536895752,
        0.6621442437171936,
        0.6621445417404175
      ],
      "scale": [
        0.9999998807907104,
        0.9999999403953552,
        0.9999998807907104
      ],
      "translation": [
        6.146258613171085e-08,
        0.4231811463832855,
        -3.725290298461914e-09
      ]
    },
    {
      "children": [
        14
      ],
      "name": "spot_actuatorTarget_FL_05",
      "rotation": [
        0.9667699933052063,
        -1.5938187436503881e-09,
        -2.7891607246033345e-08,
        0.2556481659412384
      ],
      "scale": [
        1.0,
        1.0,
        0.9999998211860657
      ],
      "translation": [
        -0.00018155667930841446,
        0.7400586009025574,
        0.08616343140602112
      ]
    },
    {
      "name": "spot_actuatorTarget_FL_end_026",
      "rotation": [
        -3.469446951953614e-18,
        3.469446951953614e-18,
        -2.8189256484623115e-18,
        1.0
      ],
      "translation": [
        0.0,
        0.19999992847442627,
        0.0
      ]
    },
    {
      "children": [
        16
      ],
      "name": "spot_lowerLeg_FL_06",
      "rotation": [
        -0.6162818670272827,
        1.4191118502537847e-08,
        1.596500709410975e-08,
        0.7875256538391113
      ],
      "scale": [
        1.0,
        1.0000001192092896,
        1.0
      ],
      "translation": [
        -5.774199962615967e-08,
        0.9811187982559204,
        7.450580596923828e-09
      ]
    },
    {
      "children": [
        17
      ],
      "name": "spot_actuator_FL_07",
      "rotation": [
        -0.7399855852127075,
        -1.0523062599077093e-07,
        1.3846126023508987e-08,
        0.6726227402687073
      ],
      "translation": [
        1.816079020500183e-08,
        -0.12237508594989777,
        -0.012307954952120781
      ]
    },
    {
      "name": "spot_actuator_FL_end_027",
      "rotation": [
        5.551115123125783e-17,
        1.734723475976807e-18,
        -2.42861286636753e-17,
        1.0
      ],
      "translation": [
        1.1102230246251565e-16,
        0.19999998807907104,
        -1.1102230246251565e-16
      ]
    },
    {
      "children": [
        19
      ],
      "name": "spot_shoulder_FR_08",
      "rotation": [
        -0.05774501711130142,
        0.05774502456188202,
        -0.7047451138496399,
        0.7047448754310608
      ],
      "translation": [
        0.017000354826450348,
        1.0070385932922363,
        2.2351741790771484e-07
      ]
    },
    {
      "children": [
        20,
        23
      ],
      "name": "spot_upperLeg_FR_09",
      "rotation": [
        -0.21608661115169525,
        0.2160864621400833,
        -0.6732803583145142,
        0.6732805967330933
      ],
      "translation": [
        -2.780939922786274e-08,
        0.4231812059879303,
        2.4586915969848633e-07
      ]
    },
    {
      "children": [
        21
      ],
      "name": "spot_lowerLeg_FR_010",
      "rotation": [
        -0.6776688694953918,
        -1.899709367592095e-08,
        -6.332363522432161e-09,
        0.7353671789169312
      ],
      "scale": [
        1.0,
        1.0,
        0.9999998211860657
      ],
      "translation": [
        1.955777406692505e-08,
        0.9811186194419861,
        8.940696716308594e-08
      ]
    },
    {
      "children": [
        22
      ],
      "name": "spot_actuator_FR_011",
      "rotation": [
        -0.6796960234642029,
        9.903715181280859e-08,
        -7.618232267248004e-09,
        0.733493983745575
      ],
      "scale": [
        1.0000001192092896,
        1.0000003576278687,
        1.0000003576278687
      ],
      "translation": [
        6.017182022333145e-05,
        -0.12237516045570374,
        -0.01230798289179802
      ]
    },
    {
      "name": "spot_actuator_FR_end_028",
      "rotation": [
        0.0,
        0.0,
        1.0408340855860843e-17,
        1.0
      ],
      "translation": [
        2.7755575615628914e-17,
        0.19999998807907104,
        0.0
      ]
    },
    {
      "children": [
        24
      ],
      "name": "spot_actuatorTarget_FR_012",
      "rotation": [
        0.9667699933052063,
        -1.2750456690469036e-08,
        3.096538137015159e-08,
        0.2556481659412384
      ],
      "scale": [
        1.0,
        1.0,
        1.000000238418579
      ],
      "translation": [
        0.00018152780830860138,
        0.7400584816932678,
        0.08616352826356888
      ]
    },
    {
      "name": "spot_actuatorTarget_FR_end_029",
      "rotation": [
        1.3877787807814457e-17,
        6.938893903907228e-18,
        -1.951563910473908e-17,
        1.0
      ],
      "translation": [
        0.0,
        0.19999992847442627,
        0.0
      ]
    },
    {
      "children": [
        26
      ],
      "name": "spot_shoulder_RL_013",
      "rotation": [
        -0.047420699149370193,
        -0.04742072522640228,
        0.7055151462554932,
        0.705514669418335
      ],
      "translation": [
        -0.017000354826450348,
        -0.7729613780975342,
        1.4901161193847656e-07
      ]
    },
    {
      "children": [
        27,
        30
      ],
      "name": "spot_upperLeg_RL_014",
      "rotation": [
        -0.08587281405925751,
        -0.08587268739938736,
        0.7018729448318481,
        0.7018733024597168
      ],
      "scale": [
        1.000000238418579,
        1.0000004768371582,
        1.0
      ],
      "translation": [
        8.182678357115947e-08,
        0.4231812059879303,
        1.7508864402770996e-07
      ]
    },
    {
      "children": [
        28
      ],
      "name": "spot_lowerLeg_RL_015",
      "rotation": [
        0.8832288980484009,
        -2.581807834189931e-08,
        -3.5748129789681116e-08,
        -0.4689423441886902
      ],
      "scale": [
        1.0,
        0.9999998807907104,
        0.9999997019767761
      ],
      "translation": [
        2.2351741790771484e-08,
        0.9811186194419861,
        -8.195638656616211e-08
      ]
    },
    {
      "children": [
        29
      ],
      "name": "spot_actuator_RL_016",
      "rotation": [
        -0.4360930621623993,
        -4.346649618014453e-08,
        -2.639035834306469e-08,
        0.8999015688896179
      ],
      "scale": [
        1.0,
        1.0000001192092896,
        0.9999995231628418
      ],
      "translation": [
        -7.450580596923828e-09,
        -0.12242861837148666,
        -0.012238096445798874
      ]
    },
    {
      "name": "spot_actuator_RL_end_030",
      "rotation": [
        -2.7755575615628914e-17,
        -1.214306433183765e-17,
        3.469446951953614e-18,
        1.0
      ],
      "translation": [
        -5.551115123125783e-17,
        0.19999998807907104,
        -2.220446049250313e-16
      ]
    },
    {
      "children": [
        31
      ],
      "name": "spot_actuatorTarget_RL_017",
      "rotation": [
        0.9667699933052063,
        -1.8214616481770918e-09,
        -5.464478647354554e-08,
        0.2556481659412384
      ],
      "scale": [
        1.0,
        1.0,
        1.0000003576278687
      ],
      "translation": [
        -0.00018149614334106445,
        0.7400585412979126,
        0.08616358041763306
      ]
    },
    {
      "name": "spot_actuatorTarget_RL_end_031",
      "rotation": [
        2.7755575615628914e-17,
        -6.938893903907228e-18,
        -1.214306433183765e-17,
        1.0
      ],
      "translation": [
        -5.551115123125783e-17,
        0.20000004768371582,
        0.0
      ]
    },
    {
      "children": [
        33
      ],
      "name": "spot_shoulder_RR_018",
      "rotation": [
        0.04724542424082756,
        -0.04724545404314995,
        -0.7055269479751587,
        0.7055264711380005
      ],
      "scale": [
        1.0,
        0.9999999403953552,
        0.9999998807907104
      ],
      "translation": [
        0.017000354826450348,
        -0.7729613780975342,
        1.4901161193847656e-07
      ]
    },
    {
      "children": [
        34,
        37
      ],
      "name": "spot_upperLeg_RR_019",
      "rotation": [
        -0.11777273565530777,
        0.11777261644601822,
        -0.69722980260849,
        0.6972301006317139
      ],
      "scale": [
        1.0000001192092896,
        1.0000004768371582,
        1.0000001192092896
      ],
      "translation": [
        -5.2039737852283e-08,
        0.4231812059879303,
        -2.60770320892334e-08
      ]
    },
    {
      "children": [
        35
      ],
      "name": "spot_lowerLeg_RR_020",
      "rotation": [
        -0.8514571189880371,
        -3.374201895667284e-08,
        -3.551791394329484e-08,
        0.5244241952896118
      ],
      "scale": [
        0.9999999403953552,
        0.9999998211860657,
        0.9999998211860657
      ],
      "translation": [
        5.21540641784668e-08,
        0.9811186194419861,
        -1.5273690223693848e-07
      ]
    },
    {
      "children": [
        36
      ],
      "name": "spot_actuator_RR_021",
      "rotation": [
        -0.4811214208602905,
        4.993096425209842e-08,
        2.5496650124523512e-08,
        0.8766539692878723
      ],
      "scale": [
        1.0,
        1.0,
        0.9999995231628418
      ],
      "translation": [
        6.015598773956299e-05,
        -0.12242878973484039,
        -0.01223808154463768
      ]
    },
    {
      "name": "spot_actuator_RR_end_032",
      "rotation": [
        -6.018531076210112e-35,
        1.734723475976807e-17,
        3.469446951953614e-18,
        1.0
      ],
      "translation": [
        1.1102230246251565e-16,
        0.19999998807907104,
        2.220446049250313e-16
      ]
    },
    {
      "children": [
        38
      ],
      "name": "spot_actuatorTarget_RR_022",
      "rotation": [
        0.9667699933052063,
        7.285971825865545e-09,
        6.193075563487582e-08,
        0.2556481659412384
      ],
      "scale": [
        0.9999999403953552,
        0.9999999403953552,
        0.9999999403953552
      ],
      "translation": [
        0.00018157809972763062,
        0.7400584816932678,
        0.08616343885660172
      ]
    },
    {
      "name": "spot_actuatorTarget_RR_end_033",
      "rotation": [
        -8.326672684688674e-17,
        -0.0,
        0.0,
        1.0
      ],
      "translation": [
        0.0,
        0.20000004768371582,
        2.220446049250313e-16
      ]
    },
    {
      "children": [
        40
      ],
      "name": "spot_legTarget_FR_00",
      "rotation": [
        0.7071068286895752,
        -3.0908619663705394e-08,
        0.7071067690849304,
        3.0908619663705394e-08
      ],
      "translation": [
        -0.19489628076553345,
        -0.9572723507881165,
        0.00010704994201660156
      ]
    },
    {
      "name": "spot_legTarget_FR_end_034",
      "rotation": [
        -6.617444900424222e-24,
        -6.028867890429772e-24,
        1.3234889800848443e-23,
        1.0
      ],
      "translation": [
        -1.3552527156068805e-20,
        0.2999998927116394,
        0.0
      ]
    },
    {
      "children": [
        42
      ],
      "name": "spot_legTarget_RL_023",
      "rotation": [
        0.7071068286895752,
        -3.0908619663705394e-08,
        0.7071067690849304,
        3.0908619663705394e-08
      ],
      "translation": [
        0.3098970651626587,
        0.8227277398109436,
        0.00010704994201660156
      ]
    },
    {
      "name": "spot_legTarget_RL_end_035",
      "rotation": [
        -6.617444900424222e-24,
        -6.028867890429772e-24,
        1.3234889800848443e-23,
        1.0
      ],
      "translation": [
        1.3552527156068805e-20,
        0.30000007152557373,
        5.551115123125783e-17
      ]
    },
    {
      "children": [
        44
      ],
      "name": "spot_legTarget_RR_024",
      "rotation": [
        0.7071068286895752,
        -3.0908619663705394e-08,
        0.7071067690849304,
        3.0908619663705394e-08
      ],
      "translation": [
        -0.5704661011695862,
        0.8227277398109436,
        0.00010704994201660156
      ]
    },
    {
      "name": "spot_legTarget_RR_end_036",
      "rotation": [
        -6.617444900424222e-24,
        -6.028867890429772e-24,
        1.3234889800848443e-23,
        1.0
      ],
      "translation": [
        0.0,
        0.30000007152557373,
        -1.1102230246251565e-16
      ]
    }
  ],
  "samplers": [
    {
      "magFilter": 9729,
      "minFilter": 9987,
      "wrapS": 10497,
      "wrapT": 10497
    }
  ],
  "scene": 0,
  "scenes": [
    {
      "name": "Sketchfab_Scene",
      "nodes": [
        0
      ]
    }
  ],
  "skins": [
    {
      "inverseBindMatrices": 5,
      "joints": [
        5,
        8,
        9,
        10,
        11,
        12,
        13,
        14,
        15,
        16,
        17,
        18,
        19,
        20,
        21,
        22,
        23,
        24,
        25,
        26,
        27,
        28,
        29,
        30,
        31,
        32,
        33,
        34,
        35,
        36,
        37,
        38,
        39,
        40,
        41,
        42,
        43,
        44
      ],
      "skeleton": 5
    }
  ],
  "textures": [
    {
      "sampler": 0,
      "source": 0
    },
    {
      "sampler": 0,
      "source": 1
    },
    {
      "sampler": 0,
      "source": 2
    },
    {
      "sampler": 0,
      "source": 3
    }
  ]
}
